<svg width="118" height="48" viewBox="0 0 118 48" fill="none" xmlns="http://www.w3.org/2000/svg">
  <path fill-rule="evenodd" clipRule="evenodd" d="M21.7952 21.1556L15.2513 5.95414L8.7339 21.1556H21.7952ZM32.3497 34.8027H26.36C26.0434 32.4316 25.1199 29.7443 24.6977 28.5061C24.1963 27.2415 23.4047 25.2919 22.9298 24.1854C22.8506 23.9746 21.2147 23.2633 19.2357 23.2633C18.2594 23.2633 7.7576 23.2633 7.7576 23.2633C7.7576 23.2633 5.75224 27.8738 5.01342 29.5863C4.2746 31.2987 3.85241 33.3274 3.61494 34.8027H0L15.568 0H17.415L32.3497 34.8027Z" fill="#0A0A0A"/>
  <path fill-rule="evenodd" clipRule="evenodd" d="M54.7784 8.32526C54.7784 6.37567 54.2771 4.90031 53.3008 3.92552C52.5092 3.13514 51.5857 2.58188 50.4775 2.23939C49.3956 1.89689 47.9444 1.73882 46.1237 1.73882C43.4323 1.73882 41.6116 2.4765 41.6116 2.4765V15.8338L44.435 15.8865C46.4931 15.8865 48.1291 15.7021 49.3428 15.3596C50.583 15.0171 51.6912 14.3321 52.7203 13.3046C54.0924 11.961 54.7784 10.3012 54.7784 8.32526ZM63.5123 34.8027H56.7047C55.3326 32.8268 54.9632 32.2999 53.8549 30.5611C53.3272 29.7443 46.9945 20.2072 45.3585 17.757H41.6644V34.8027H37.1787V0H48.2346C51.6648 0 54.3035 0.553261 56.1241 1.63344C58.2351 2.87169 59.2905 4.87396 59.2905 7.56123C59.2905 10.7491 57.9184 13.2256 55.1742 15.0171C53.4855 16.1236 52.5356 16.3871 50.1608 17.0457L57.5754 28.2953C59.3433 30.8772 61.4806 33.1956 63.5123 34.8027Z" fill="#0A0A0A"/>
  <path fill-rule="evenodd" clipRule="evenodd" d="M90.0303 3.05611C88.9749 2.66092 86.7848 2.1867 84.885 2.1867C83.0115 2.1867 81.2173 2.21304 78.7897 2.21304V34.8554H74.304V2.23939C71.9293 2.23939 70.3988 2.23939 68.5254 2.23939C66.2298 2.23939 64.0925 2.79265 63.1426 3.08245V0H90.0039V3.05611H90.0303Z" fill="#0A0A0A"/>
  <path fill-rule="evenodd" clipRule="evenodd" d="M107.366 21.1556L100.823 5.95414L94.3316 21.1556H107.366ZM117.947 34.8027H111.958C111.641 32.4316 110.718 29.7443 110.295 28.5061C109.794 27.2415 109.002 25.2919 108.527 24.1854C108.448 23.9746 106.812 23.2633 104.833 23.2633C103.857 23.2633 93.3553 23.2633 93.3553 23.2633C93.3553 23.2633 91.3499 27.8738 90.6111 29.5863C89.8723 31.2987 89.4501 33.3274 89.2126 34.8027H85.5449L101.139 0H102.986L117.947 34.8027Z" fill="#0A0A0A"/>
  <path fill-rule="evenodd" clipRule="evenodd" d="M81.1906 39.3079C80.874 39.2288 80.3199 39.0971 79.8185 39.0971C79.3699 39.0971 79.0269 39.0971 78.3936 39.0971V47.6331H77.2063V39.0971C76.573 39.0971 76.3619 39.0971 75.755 39.0971C75.2273 39.0971 74.6204 39.2025 74.251 39.3079V38.4385H81.1906V39.3079Z" fill="#0A0A0A"/>
  <path fill-rule="evenodd" clipRule="evenodd" d="M85.3863 43.8921C85.3863 43.1544 85.2544 42.6011 85.0169 42.2059C84.7266 41.7581 84.3044 41.5473 83.7239 41.5473C83.0907 41.5473 82.5893 41.8107 82.2463 42.364C81.9561 42.8119 81.8505 43.2598 81.8241 43.8921H85.3863ZM86.4681 44.0501L86.4418 44.419C85.9668 44.419 81.7977 44.419 81.7977 44.419V44.6561C81.8505 45.4728 82.0088 45.9997 82.4046 46.4739C82.8268 46.9482 83.4073 47.1853 84.1461 47.1853C84.4892 47.1853 84.8322 47.1062 85.1752 46.9482C85.5182 46.7901 85.8085 46.553 86.0987 46.2632V46.9745C85.7557 47.2116 85.3863 47.396 84.9905 47.5541C84.5947 47.6858 84.1989 47.7649 83.8031 47.7649C82.8532 47.7649 82.1144 47.4751 81.5339 46.9218C80.927 46.3159 80.6104 45.4991 80.6104 44.4453C80.6104 43.4969 80.8742 42.7328 81.3756 42.1269C81.9297 41.4946 82.6949 41.1521 83.6712 41.1521C84.5419 41.1521 85.228 41.4419 85.7293 42.0215C86.2307 42.5484 86.4681 43.2334 86.4681 44.0501Z" fill="#0A0A0A"/>
  <path fill-rule="evenodd" clipRule="evenodd" d="M93.0646 41.679L92.6688 42.6011C92.5369 42.3903 92.405 42.2586 92.2994 42.1269C92.1675 41.9951 92.0356 41.8898 91.9036 41.8107C91.587 41.6526 91.2703 41.5736 90.9801 41.5736C90.2677 41.5736 89.7135 41.8371 89.2914 42.3376C88.8692 42.8382 88.6581 43.5232 88.6581 44.3399C88.6581 45.183 88.8692 45.868 89.3178 46.4212C89.7663 46.9745 90.3732 47.2643 91.1384 47.2643C91.5078 47.2643 91.8772 47.1589 92.1939 46.9745C92.3786 46.8691 92.6424 46.6583 92.9591 46.3422V47.0272C92.6688 47.2379 92.3786 47.396 92.0356 47.5277C91.6925 47.6595 91.3231 47.7122 90.9273 47.7122C89.8455 47.7122 89.0011 47.396 88.3942 46.7901C87.7873 46.1841 87.4707 45.3674 87.4707 44.3926C87.4707 43.3388 87.8137 42.5221 88.4998 41.9424C89.133 41.3892 89.951 41.1257 90.9537 41.1257C91.3759 41.1257 91.7189 41.1521 92.0619 41.2311C92.3522 41.3102 92.6952 41.4682 93.0646 41.679Z" fill="#0A0A0A"/>
  <path fill-rule="evenodd" clipRule="evenodd" d="M100.058 47.6331H98.9758V44.1028C98.9758 43.3124 98.8703 42.7591 98.6856 42.443C98.4745 42.0478 98.1051 41.8634 97.5246 41.8634C96.5483 41.8634 95.7303 42.7328 95.7303 43.971V47.6594H94.6484V38.5175H95.7303V42.522C95.9941 42.0741 96.3108 41.7053 96.6802 41.4945C97.0496 41.2838 97.4454 41.152 97.9203 41.152C98.6856 41.152 99.2133 41.3628 99.5563 41.8107C99.8993 42.2586 100.058 42.9172 100.058 43.7866V47.6331Z" fill="#0A0A0A"/>
  <path fill-rule="evenodd" clipRule="evenodd" d="M107.049 39.3079C106.733 39.2289 105.915 39.0708 105.281 39.0708H103.461V42.4431H106.733V43.1807C106.733 43.1807 106.152 43.049 105.545 43.049C105.308 43.049 103.461 43.049 103.461 43.049V47.6332H102.273V38.4648H107.049V39.3079Z" fill="#0A0A0A"/>
  <path fill-rule="evenodd" clipRule="evenodd" d="M110.216 47.6331H109.134V41.2311H110.216V47.6331ZM110.374 38.9126C110.374 39.0971 110.295 39.2551 110.163 39.3869C110.031 39.5186 109.873 39.5976 109.688 39.5976C109.503 39.5976 109.345 39.5186 109.213 39.3869C109.081 39.2551 109.002 39.0971 109.002 38.9126C109.002 38.7282 109.081 38.5702 109.213 38.4384C109.345 38.3067 109.503 38.2277 109.688 38.2277C109.873 38.2277 110.031 38.3067 110.163 38.4384C110.295 38.5702 110.374 38.7282 110.374 38.9126Z" fill="#0A0A0A"/>
  <path fill-rule="evenodd" clipRule="evenodd" d="M118 47.6331H116.918V43.9447C116.918 43.2334 116.813 42.7065 116.575 42.3376C116.338 41.9688 115.968 41.8107 115.493 41.8107C114.966 41.8107 114.517 42.0478 114.227 42.4167C113.963 42.7855 113.673 43.2861 113.673 44.2345V47.6068H112.591V41.2048H113.673V42.4957C113.884 42.1005 114.2 41.7317 114.543 41.5209C114.939 41.2575 115.335 41.1257 115.863 41.1257C116.628 41.1257 117.182 41.3628 117.525 41.8107C117.842 42.2586 118 42.8382 118 43.6549V47.6331Z" fill="#0A0A0A"/>
</svg>
