<svg width="140" height="140" viewBox="0 0 140 140" fill="none" xmlns="http://www.w3.org/2000/svg">
<path fill-rule="evenodd" clipRule="evenodd" d="M79.5418 30.3123C79.5418 28.5922 80.9362 27.1979 82.6562 27.1979C84.3763 27.1979 85.7707 28.5922 85.7707 30.3123C85.7707 32.0324 84.3763 33.4268 82.6562 33.4268C80.9362 33.4268 79.5418 32.0324 79.5418 30.3123ZM82.6562 24.6768C79.5438 24.6768 77.0207 27.1999 77.0207 30.3123C77.0207 32.8826 78.7414 35.051 81.0937 35.7284V41.0935H72.1875V28.1249H69.0625V41.0935H60.1562V28.1249H57.0312V41.0935H41.0937V57.0311H35.7286C35.0513 54.6787 32.8828 52.958 30.3125 52.958C27.2001 52.958 24.6769 55.4811 24.6769 58.5935C24.6769 61.7059 27.2001 64.2291 30.3125 64.2291C32.8828 64.2291 35.0512 62.5084 35.7286 60.1561H41.0937V69.0623H28.125V72.1873H41.0937V81.2499H28.125V84.3749H41.0937V100.312H57.0312V105.521C54.6789 106.199 52.9582 108.367 52.9582 110.937C52.9582 114.05 55.4813 116.573 58.5937 116.573C61.7062 116.573 64.2293 114.05 64.2293 110.937C64.2293 108.367 62.5085 106.199 60.1562 105.521V100.312H69.0625V113.125H72.1875V100.312H81.25V113.125H84.375V100.312H100.312V84.2187H105.521C106.199 86.5709 108.367 88.2916 110.938 88.2916C114.05 88.2916 116.573 85.7685 116.573 82.6561C116.573 79.5436 114.05 77.0205 110.938 77.0205C108.367 77.0205 106.199 78.7413 105.521 81.0937H100.312V72.1873H113.125V69.0623H100.312V60.1561H113.125V57.0311H100.312V41.0935H84.2187V35.7284C86.5711 35.051 88.2918 32.8826 88.2918 30.3123C88.2918 27.1999 85.7687 24.6768 82.6562 24.6768ZM44.2187 97.1872V44.2185H97.1875V97.1872H44.2187ZM87.6562 53.7497H53.75V87.656H87.6562V53.7497ZM56.875 84.531V56.8747H84.5312V84.531H56.875ZM55.4793 110.937C55.4793 109.217 56.8737 107.823 58.5937 107.823C60.3138 107.823 61.7082 109.217 61.7082 110.937C61.7082 112.658 60.3138 114.052 58.5937 114.052C56.8737 114.052 55.4793 112.658 55.4793 110.937ZM107.823 82.6561C107.823 80.936 109.217 79.5416 110.938 79.5416C112.658 79.5416 114.052 80.936 114.052 82.6561C114.052 84.3761 112.658 85.7705 110.938 85.7705C109.217 85.7705 107.823 84.3761 107.823 82.6561ZM27.198 58.5935C27.198 56.8735 28.5924 55.4791 30.3125 55.4791C32.0326 55.4791 33.4269 56.8735 33.4269 58.5935C33.4269 60.3136 32.0326 61.708 30.3125 61.708C28.5924 61.708 27.198 60.3136 27.198 58.5935Z" fill="currentColor"/>
<circle cx="70" cy="70" r="68.5" stroke="currentColor" stroke-width="3"/>
</svg>
